<mxfile host="app.diagrams.net" agent="Mozilla/5.0 (Windows NT 10.0; Win64; x64) AppleWebKit/537.36 (KHTML, like Gecko) Chrome/128.0.0.0 Safari/537.36" version="24.7.14">
  <diagram name="Page-1" id="iBRlb1mhVoszrk2-aHQL">
    <mxGraphModel dx="2074" dy="725" grid="1" gridSize="10" guides="1" tooltips="1" connect="1" arrows="1" fold="1" page="1" pageScale="1" pageWidth="850" pageHeight="1100" math="0" shadow="0">
      <root>
        <mxCell id="0" />
        <mxCell id="1" parent="0" />
        <mxCell id="-mjvh53arfqLqoCf8BJp-1" value="Actor" style="shape=umlActor;verticalLabelPosition=bottom;verticalAlign=top;html=1;outlineConnect=0;fillColor=#EA6B66;" parent="1" vertex="1">
          <mxGeometry x="410" y="180" width="30" height="60" as="geometry" />
        </mxCell>
        <mxCell id="_Eg-LZfy4czVI2hD-TEB-29" value="" style="rounded=0;whiteSpace=wrap;html=1;dashed=1;strokeColor=#EA6B66;" parent="1" vertex="1">
          <mxGeometry x="80" y="330" width="680" height="180" as="geometry" />
        </mxCell>
        <mxCell id="-mjvh53arfqLqoCf8BJp-2" value="To-Do App User" style="text;html=1;align=center;verticalAlign=middle;whiteSpace=wrap;rounded=0;" parent="1" vertex="1">
          <mxGeometry x="395" y="150" width="60" height="30" as="geometry" />
        </mxCell>
        <mxCell id="-mjvh53arfqLqoCf8BJp-13" value="" style="endArrow=classic;html=1;rounded=0;entryX=0;entryY=0.5;entryDx=0;entryDy=0;" parent="1" source="-mjvh53arfqLqoCf8BJp-14" target="_Eg-LZfy4czVI2hD-TEB-1" edge="1">
          <mxGeometry width="50" height="50" relative="1" as="geometry">
            <mxPoint x="425" y="240" as="sourcePoint" />
            <mxPoint x="520" y="280" as="targetPoint" />
          </mxGeometry>
        </mxCell>
        <mxCell id="-mjvh53arfqLqoCf8BJp-18" value="" style="rounded=0;whiteSpace=wrap;html=1;fillColor=#CCCCCC;" parent="1" vertex="1">
          <mxGeometry x="180.5" y="590" width="180" height="90" as="geometry" />
        </mxCell>
        <mxCell id="-mjvh53arfqLqoCf8BJp-19" value="Stores to-do items and their statuses" style="text;html=1;align=center;verticalAlign=middle;whiteSpace=wrap;rounded=0;fontSize=10;" parent="1" vertex="1">
          <mxGeometry x="211" y="630" width="120" height="30" as="geometry" />
        </mxCell>
        <mxCell id="-mjvh53arfqLqoCf8BJp-20" value="Trello [Software System]" style="text;html=1;align=center;verticalAlign=middle;whiteSpace=wrap;rounded=0;" parent="1" vertex="1">
          <mxGeometry x="218.5" y="590" width="105" height="30" as="geometry" />
        </mxCell>
        <mxCell id="-mjvh53arfqLqoCf8BJp-21" value="" style="endArrow=classic;html=1;rounded=0;exitX=0.5;exitY=1;exitDx=0;exitDy=0;entryX=0.5;entryY=0;entryDx=0;entryDy=0;" parent="1" source="-mjvh53arfqLqoCf8BJp-23" target="-mjvh53arfqLqoCf8BJp-20" edge="1">
          <mxGeometry width="50" height="50" relative="1" as="geometry">
            <mxPoint x="390" y="540" as="sourcePoint" />
            <mxPoint x="270" y="580" as="targetPoint" />
          </mxGeometry>
        </mxCell>
        <mxCell id="-mjvh53arfqLqoCf8BJp-22" value="" style="endArrow=classic;html=1;rounded=0;exitX=0.5;exitY=1;exitDx=0;exitDy=0;entryX=0.5;entryY=0;entryDx=0;entryDy=0;" parent="1" source="_Eg-LZfy4czVI2hD-TEB-10" target="-mjvh53arfqLqoCf8BJp-23" edge="1">
          <mxGeometry width="50" height="50" relative="1" as="geometry">
            <mxPoint x="425" y="450" as="sourcePoint" />
            <mxPoint x="426" y="560" as="targetPoint" />
          </mxGeometry>
        </mxCell>
        <mxCell id="-mjvh53arfqLqoCf8BJp-23" value="Stores and retrieves to-do items using" style="text;html=1;align=center;verticalAlign=middle;whiteSpace=wrap;rounded=0;fontSize=8;" parent="1" vertex="1">
          <mxGeometry x="241" y="520" width="60" height="30" as="geometry" />
        </mxCell>
        <mxCell id="-mjvh53arfqLqoCf8BJp-24" value="Component" style="rounded=0;whiteSpace=wrap;html=1;fillColor=#EA6B66;" parent="1" vertex="1">
          <mxGeometry x="195" y="980" width="120" height="60" as="geometry" />
        </mxCell>
        <mxCell id="-mjvh53arfqLqoCf8BJp-25" value="Software System, Existing System" style="rounded=0;whiteSpace=wrap;html=1;fillColor=#CCCCCC;" parent="1" vertex="1">
          <mxGeometry x="480" y="980" width="120" height="60" as="geometry" />
        </mxCell>
        <mxCell id="-mjvh53arfqLqoCf8BJp-26" value="Actor" style="shape=umlActor;verticalLabelPosition=bottom;verticalAlign=top;html=1;outlineConnect=0;" parent="1" vertex="1">
          <mxGeometry x="130" y="980" width="30" height="60" as="geometry" />
        </mxCell>
        <mxCell id="-mjvh53arfqLqoCf8BJp-27" value="" style="endArrow=classic;html=1;rounded=0;" parent="1" source="-mjvh53arfqLqoCf8BJp-37" edge="1">
          <mxGeometry width="50" height="50" relative="1" as="geometry">
            <mxPoint x="630" y="1009.47" as="sourcePoint" />
            <mxPoint x="770" y="1010" as="targetPoint" />
          </mxGeometry>
        </mxCell>
        <mxCell id="-mjvh53arfqLqoCf8BJp-36" value="" style="endArrow=classic;html=1;rounded=0;" parent="1" target="-mjvh53arfqLqoCf8BJp-37" edge="1">
          <mxGeometry width="50" height="50" relative="1" as="geometry">
            <mxPoint x="630" y="1009.47" as="sourcePoint" />
            <mxPoint x="770" y="1010" as="targetPoint" />
          </mxGeometry>
        </mxCell>
        <mxCell id="-mjvh53arfqLqoCf8BJp-37" value="Relationship" style="text;html=1;align=center;verticalAlign=middle;whiteSpace=wrap;rounded=0;fontSize=8;" parent="1" vertex="1">
          <mxGeometry x="670" y="995" width="60" height="30" as="geometry" />
        </mxCell>
        <mxCell id="-mjvh53arfqLqoCf8BJp-38" value="Diagram key" style="text;html=1;align=center;verticalAlign=middle;whiteSpace=wrap;rounded=0;fontSize=18;" parent="1" vertex="1">
          <mxGeometry x="230" y="920" width="110" height="30" as="geometry" />
        </mxCell>
        <mxCell id="_Eg-LZfy4czVI2hD-TEB-1" value="Multi-page application" style="swimlane;whiteSpace=wrap;html=1;fillColor=#EA6B66;" parent="1" vertex="1">
          <mxGeometry x="580" y="170" width="200" height="100" as="geometry" />
        </mxCell>
        <mxCell id="-mjvh53arfqLqoCf8BJp-6" value="Allows users to view, add, or change the status of to-do items" style="text;html=1;align=center;verticalAlign=middle;whiteSpace=wrap;rounded=0;fontSize=10;" parent="_Eg-LZfy4czVI2hD-TEB-1" vertex="1">
          <mxGeometry x="39.5" y="60" width="120" height="30" as="geometry" />
        </mxCell>
        <mxCell id="_Eg-LZfy4czVI2hD-TEB-2" value="[Container: HTML]&amp;nbsp;" style="text;html=1;align=center;verticalAlign=middle;whiteSpace=wrap;rounded=0;" parent="_Eg-LZfy4czVI2hD-TEB-1" vertex="1">
          <mxGeometry x="44.75" y="20" width="110.5" height="30" as="geometry" />
        </mxCell>
        <mxCell id="_Eg-LZfy4czVI2hD-TEB-10" value="" style="rounded=0;whiteSpace=wrap;html=1;fillColor=#EA6B66;" parent="1" vertex="1">
          <mxGeometry x="180" y="360" width="180" height="90" as="geometry" />
        </mxCell>
        <mxCell id="_Eg-LZfy4czVI2hD-TEB-11" value="Sends, receives, and transforms data to/from Trello" style="text;html=1;align=center;verticalAlign=middle;whiteSpace=wrap;rounded=0;fontSize=10;" parent="1" vertex="1">
          <mxGeometry x="210.5" y="400" width="120" height="30" as="geometry" />
        </mxCell>
        <mxCell id="_Eg-LZfy4czVI2hD-TEB-12" value="Data Component [Component: Python Sub-package]" style="text;html=1;align=center;verticalAlign=middle;whiteSpace=wrap;rounded=0;" parent="1" vertex="1">
          <mxGeometry x="180.5" y="360" width="180" height="30" as="geometry" />
        </mxCell>
        <mxCell id="_Eg-LZfy4czVI2hD-TEB-16" value="" style="endArrow=classic;html=1;rounded=0;entryX=0.25;entryY=0;entryDx=0;entryDy=0;exitX=0.5;exitY=1;exitDx=0;exitDy=0;" parent="1" source="_Eg-LZfy4czVI2hD-TEB-17" target="NqH92G6PyKb4xBp79eJ6-10" edge="1">
          <mxGeometry width="50" height="50" relative="1" as="geometry">
            <mxPoint x="330" y="270" as="sourcePoint" />
            <mxPoint x="380" y="220" as="targetPoint" />
          </mxGeometry>
        </mxCell>
        <mxCell id="_Eg-LZfy4czVI2hD-TEB-18" value="" style="endArrow=classic;html=1;rounded=0;entryX=0.25;entryY=0;entryDx=0;entryDy=0;" parent="1" source="-mjvh53arfqLqoCf8BJp-1" target="_Eg-LZfy4czVI2hD-TEB-17" edge="1">
          <mxGeometry width="50" height="50" relative="1" as="geometry">
            <mxPoint x="410" y="227" as="sourcePoint" />
            <mxPoint x="293" y="360" as="targetPoint" />
          </mxGeometry>
        </mxCell>
        <mxCell id="_Eg-LZfy4czVI2hD-TEB-17" value="Visits index page using [HTTPS]" style="text;html=1;align=center;verticalAlign=middle;whiteSpace=wrap;rounded=0;fontSize=8;" parent="1" vertex="1">
          <mxGeometry x="460.5" y="280" width="60" height="30" as="geometry" />
        </mxCell>
        <mxCell id="_Eg-LZfy4czVI2hD-TEB-30" value="Web Server [Container]&amp;nbsp;" style="text;html=1;align=left;verticalAlign=middle;whiteSpace=wrap;rounded=0;" parent="1" vertex="1">
          <mxGeometry x="80" y="480" width="70" height="30" as="geometry" />
        </mxCell>
        <mxCell id="C0w9gF9tWYopERiPClLl-1" value="Container, Web Browser" style="swimlane;whiteSpace=wrap;html=1;fillColor=#EA6B66;strokeColor=#b85450;" parent="1" vertex="1">
          <mxGeometry x="335" y="980" width="120" height="60" as="geometry" />
        </mxCell>
        <mxCell id="NqH92G6PyKb4xBp79eJ6-8" value="" style="rounded=0;whiteSpace=wrap;html=1;fillColor=#EA6B66;" parent="1" vertex="1">
          <mxGeometry x="520" y="360" width="180" height="90" as="geometry" />
        </mxCell>
        <mxCell id="NqH92G6PyKb4xBp79eJ6-9" value="Gets data from the data component and renders HTML to send to the client, depending on which route is matched" style="text;html=1;align=center;verticalAlign=middle;whiteSpace=wrap;rounded=0;fontSize=10;" parent="1" vertex="1">
          <mxGeometry x="550.5" y="400" width="120" height="30" as="geometry" />
        </mxCell>
        <mxCell id="NqH92G6PyKb4xBp79eJ6-10" value="App Router Component [Component: Python Module]" style="text;html=1;align=center;verticalAlign=middle;whiteSpace=wrap;rounded=0;" parent="1" vertex="1">
          <mxGeometry x="520.5" y="360" width="180" height="30" as="geometry" />
        </mxCell>
        <mxCell id="NqH92G6PyKb4xBp79eJ6-15" value="" style="endArrow=classic;html=1;rounded=0;entryX=0;entryY=0.5;entryDx=0;entryDy=0;" parent="1" source="-mjvh53arfqLqoCf8BJp-1" target="-mjvh53arfqLqoCf8BJp-14" edge="1">
          <mxGeometry width="50" height="50" relative="1" as="geometry">
            <mxPoint x="440" y="211" as="sourcePoint" />
            <mxPoint x="580" y="220" as="targetPoint" />
          </mxGeometry>
        </mxCell>
        <mxCell id="-mjvh53arfqLqoCf8BJp-14" value="Views, adds, and changes the status of to-do items using" style="text;html=1;align=center;verticalAlign=middle;whiteSpace=wrap;rounded=0;fontSize=8;" parent="1" vertex="1">
          <mxGeometry x="480" y="200" width="60" height="30" as="geometry" />
        </mxCell>
        <mxCell id="LfEgE-XExtSxDgC8CJUX-1" value="" style="endArrow=classic;html=1;rounded=0;entryX=0.25;entryY=1;entryDx=0;entryDy=0;exitX=0.5;exitY=0;exitDx=0;exitDy=0;" edge="1" parent="1" source="LfEgE-XExtSxDgC8CJUX-3" target="_Eg-LZfy4czVI2hD-TEB-1">
          <mxGeometry width="50" height="50" relative="1" as="geometry">
            <mxPoint x="630" y="360" as="sourcePoint" />
            <mxPoint x="680" y="310" as="targetPoint" />
          </mxGeometry>
        </mxCell>
        <mxCell id="LfEgE-XExtSxDgC8CJUX-2" value="" style="endArrow=classic;html=1;rounded=0;entryX=0.5;entryY=1;entryDx=0;entryDy=0;exitX=0.5;exitY=0;exitDx=0;exitDy=0;" edge="1" parent="1" source="NqH92G6PyKb4xBp79eJ6-10" target="LfEgE-XExtSxDgC8CJUX-3">
          <mxGeometry width="50" height="50" relative="1" as="geometry">
            <mxPoint x="611" y="360" as="sourcePoint" />
            <mxPoint x="680" y="270" as="targetPoint" />
          </mxGeometry>
        </mxCell>
        <mxCell id="LfEgE-XExtSxDgC8CJUX-3" value="&lt;font style=&quot;font-size: 8px;&quot;&gt;Renders&lt;/font&gt;" style="text;html=1;align=center;verticalAlign=middle;whiteSpace=wrap;rounded=0;" vertex="1" parent="1">
          <mxGeometry x="610" y="290" width="40" height="20" as="geometry" />
        </mxCell>
        <mxCell id="LfEgE-XExtSxDgC8CJUX-6" value="" style="endArrow=classic;html=1;rounded=0;exitX=0.5;exitY=1;exitDx=0;exitDy=0;entryX=0.75;entryY=0;entryDx=0;entryDy=0;" edge="1" parent="1" source="LfEgE-XExtSxDgC8CJUX-8" target="NqH92G6PyKb4xBp79eJ6-10">
          <mxGeometry width="50" height="50" relative="1" as="geometry">
            <mxPoint x="400" y="400" as="sourcePoint" />
            <mxPoint x="450" y="350" as="targetPoint" />
          </mxGeometry>
        </mxCell>
        <mxCell id="LfEgE-XExtSxDgC8CJUX-7" value="" style="endArrow=classic;html=1;rounded=0;exitX=0.75;exitY=1;exitDx=0;exitDy=0;entryX=0.75;entryY=0;entryDx=0;entryDy=0;" edge="1" parent="1" source="_Eg-LZfy4czVI2hD-TEB-1" target="LfEgE-XExtSxDgC8CJUX-8">
          <mxGeometry width="50" height="50" relative="1" as="geometry">
            <mxPoint x="730" y="270" as="sourcePoint" />
            <mxPoint x="656" y="360" as="targetPoint" />
          </mxGeometry>
        </mxCell>
        <mxCell id="LfEgE-XExtSxDgC8CJUX-8" value="Makes requests to using [HTTPS]" style="text;html=1;align=center;verticalAlign=middle;whiteSpace=wrap;rounded=0;fontSize=8;" vertex="1" parent="1">
          <mxGeometry x="680" y="285" width="60" height="30" as="geometry" />
        </mxCell>
        <mxCell id="LfEgE-XExtSxDgC8CJUX-11" value="" style="endArrow=classic;html=1;rounded=0;entryX=1;entryY=0.5;entryDx=0;entryDy=0;exitX=0;exitY=0.5;exitDx=0;exitDy=0;" edge="1" parent="1" source="LfEgE-XExtSxDgC8CJUX-13" target="_Eg-LZfy4czVI2hD-TEB-10">
          <mxGeometry width="50" height="50" relative="1" as="geometry">
            <mxPoint x="430" y="450" as="sourcePoint" />
            <mxPoint x="480" y="400" as="targetPoint" />
          </mxGeometry>
        </mxCell>
        <mxCell id="LfEgE-XExtSxDgC8CJUX-12" value="" style="endArrow=classic;html=1;rounded=0;entryX=1;entryY=0.5;entryDx=0;entryDy=0;exitX=0;exitY=0.5;exitDx=0;exitDy=0;" edge="1" parent="1" source="NqH92G6PyKb4xBp79eJ6-8" target="LfEgE-XExtSxDgC8CJUX-13">
          <mxGeometry width="50" height="50" relative="1" as="geometry">
            <mxPoint x="520" y="405" as="sourcePoint" />
            <mxPoint x="360" y="405" as="targetPoint" />
          </mxGeometry>
        </mxCell>
        <mxCell id="LfEgE-XExtSxDgC8CJUX-13" value="&lt;span style=&quot;font-size: 8px;&quot;&gt;Gets data from&lt;/span&gt;" style="text;html=1;align=center;verticalAlign=middle;whiteSpace=wrap;rounded=0;" vertex="1" parent="1">
          <mxGeometry x="410" y="390" width="60" height="30" as="geometry" />
        </mxCell>
      </root>
    </mxGraphModel>
  </diagram>
</mxfile>
